<mxfile host="app.diagrams.net" modified="2020-11-14T06:33:56.057Z" agent="5.0 (Windows)" etag="0iacxi8uWDYmGYr8YxJ5" version="13.9.8" type="github">
  <diagram id="ozv7U6JDuxE5KJXknk4W" name="Page-1">
    <mxGraphModel dx="2153" dy="1873" grid="1" gridSize="10" guides="1" tooltips="1" connect="1" arrows="1" fold="1" page="1" pageScale="1" pageWidth="850" pageHeight="1100" background="#DAD2D8" math="0" shadow="0">
      <root>
        <mxCell id="0" />
        <mxCell id="1" parent="0" />
        <mxCell id="RZ0JnvWCtyyWG6B7Fr3B-1" value="ساختمان" style="rounded=0;whiteSpace=wrap;html=1;fillColor=#FAE5C7;strokeColor=#0F8B8D;fontColor=#143642;" vertex="1" parent="1">
          <mxGeometry x="130" y="120" width="120" height="60" as="geometry" />
        </mxCell>
        <mxCell id="RZ0JnvWCtyyWG6B7Fr3B-7" style="edgeStyle=orthogonalEdgeStyle;rounded=0;orthogonalLoop=1;jettySize=auto;html=1;exitX=0.5;exitY=1;exitDx=0;exitDy=0;entryX=0.5;entryY=0;entryDx=0;entryDy=0;strokeColor=#A8201A;fontColor=#143642;labelBackgroundColor=#DAD2D8;" edge="1" parent="1" source="RZ0JnvWCtyyWG6B7Fr3B-2" target="RZ0JnvWCtyyWG6B7Fr3B-1">
          <mxGeometry relative="1" as="geometry" />
        </mxCell>
        <mxCell id="RZ0JnvWCtyyWG6B7Fr3B-2" value="متراژ" style="ellipse;whiteSpace=wrap;html=1;fillColor=#FAE5C7;strokeColor=#0F8B8D;fontColor=#143642;" vertex="1" parent="1">
          <mxGeometry x="180" width="120" height="80" as="geometry" />
        </mxCell>
        <mxCell id="RZ0JnvWCtyyWG6B7Fr3B-6" style="edgeStyle=orthogonalEdgeStyle;rounded=0;orthogonalLoop=1;jettySize=auto;html=1;exitX=0.5;exitY=1;exitDx=0;exitDy=0;entryX=0.5;entryY=0;entryDx=0;entryDy=0;strokeColor=#A8201A;fontColor=#143642;labelBackgroundColor=#DAD2D8;" edge="1" parent="1" source="RZ0JnvWCtyyWG6B7Fr3B-3" target="RZ0JnvWCtyyWG6B7Fr3B-1">
          <mxGeometry relative="1" as="geometry" />
        </mxCell>
        <mxCell id="RZ0JnvWCtyyWG6B7Fr3B-3" value="&lt;u&gt;نام&lt;/u&gt;" style="ellipse;whiteSpace=wrap;html=1;fillColor=#FAE5C7;strokeColor=#0F8B8D;fontColor=#143642;" vertex="1" parent="1">
          <mxGeometry x="20" width="120" height="80" as="geometry" />
        </mxCell>
        <mxCell id="RZ0JnvWCtyyWG6B7Fr3B-9" style="edgeStyle=orthogonalEdgeStyle;rounded=0;orthogonalLoop=1;jettySize=auto;html=1;exitX=0.5;exitY=1;exitDx=0;exitDy=0;strokeColor=#A8201A;fontColor=#143642;labelBackgroundColor=#DAD2D8;" edge="1" parent="1" source="RZ0JnvWCtyyWG6B7Fr3B-5">
          <mxGeometry relative="1" as="geometry">
            <mxPoint x="190" y="120" as="targetPoint" />
            <Array as="points">
              <mxPoint x="540" y="100" />
              <mxPoint x="190" y="100" />
            </Array>
          </mxGeometry>
        </mxCell>
        <mxCell id="RZ0JnvWCtyyWG6B7Fr3B-5" value="تعداد طبقات" style="ellipse;whiteSpace=wrap;html=1;fillColor=#FAE5C7;strokeColor=#0F8B8D;fontColor=#143642;" vertex="1" parent="1">
          <mxGeometry x="480" y="10" width="120" height="80" as="geometry" />
        </mxCell>
        <mxCell id="RZ0JnvWCtyyWG6B7Fr3B-10" value="واحد" style="rounded=0;whiteSpace=wrap;html=1;fillColor=#FAE5C7;strokeColor=#0F8B8D;fontColor=#143642;" vertex="1" parent="1">
          <mxGeometry x="660" y="90" width="120" height="60" as="geometry" />
        </mxCell>
        <mxCell id="RZ0JnvWCtyyWG6B7Fr3B-46" style="edgeStyle=orthogonalEdgeStyle;rounded=0;orthogonalLoop=1;jettySize=auto;html=1;exitX=0.75;exitY=1;exitDx=0;exitDy=0;strokeColor=#A8201A;fontColor=#143642;labelBackgroundColor=#DAD2D8;" edge="1" parent="1" source="RZ0JnvWCtyyWG6B7Fr3B-11" target="RZ0JnvWCtyyWG6B7Fr3B-45">
          <mxGeometry relative="1" as="geometry" />
        </mxCell>
        <mxCell id="RZ0JnvWCtyyWG6B7Fr3B-11" value="" style="rounded=0;whiteSpace=wrap;html=1;fillColor=none;strokeColor=#0F8B8D;fontColor=#143642;" vertex="1" parent="1">
          <mxGeometry x="670" y="95" width="100" height="50" as="geometry" />
        </mxCell>
        <mxCell id="RZ0JnvWCtyyWG6B7Fr3B-17" style="edgeStyle=orthogonalEdgeStyle;rounded=0;orthogonalLoop=1;jettySize=auto;html=1;exitX=0.25;exitY=1;exitDx=0;exitDy=0;strokeColor=#A8201A;fontColor=#143642;labelBackgroundColor=#DAD2D8;" edge="1" parent="1" source="RZ0JnvWCtyyWG6B7Fr3B-13" target="RZ0JnvWCtyyWG6B7Fr3B-14">
          <mxGeometry relative="1" as="geometry" />
        </mxCell>
        <mxCell id="RZ0JnvWCtyyWG6B7Fr3B-19" style="edgeStyle=orthogonalEdgeStyle;rounded=0;orthogonalLoop=1;jettySize=auto;html=1;exitX=0.75;exitY=1;exitDx=0;exitDy=0;entryX=0.558;entryY=0.038;entryDx=0;entryDy=0;entryPerimeter=0;strokeColor=#A8201A;fontColor=#143642;labelBackgroundColor=#DAD2D8;" edge="1" parent="1" source="RZ0JnvWCtyyWG6B7Fr3B-13" target="RZ0JnvWCtyyWG6B7Fr3B-16">
          <mxGeometry relative="1" as="geometry" />
        </mxCell>
        <mxCell id="RZ0JnvWCtyyWG6B7Fr3B-13" value="پارکینگ" style="rounded=0;whiteSpace=wrap;html=1;fillColor=#FAE5C7;strokeColor=#0F8B8D;fontColor=#143642;" vertex="1" parent="1">
          <mxGeometry x="550" y="330" width="120" height="60" as="geometry" />
        </mxCell>
        <mxCell id="RZ0JnvWCtyyWG6B7Fr3B-14" value="&lt;u&gt;طبقه&lt;/u&gt;" style="ellipse;whiteSpace=wrap;html=1;fillColor=#FAE5C7;strokeColor=#0F8B8D;fontColor=#143642;" vertex="1" parent="1">
          <mxGeometry x="460" y="440" width="120" height="80" as="geometry" />
        </mxCell>
        <mxCell id="RZ0JnvWCtyyWG6B7Fr3B-16" value="&lt;u&gt;شماره ی پارکینگ&lt;/u&gt;" style="ellipse;whiteSpace=wrap;html=1;fillColor=#FAE5C7;strokeColor=#0F8B8D;fontColor=#143642;" vertex="1" parent="1">
          <mxGeometry x="620" y="440" width="120" height="80" as="geometry" />
        </mxCell>
        <mxCell id="RZ0JnvWCtyyWG6B7Fr3B-22" style="edgeStyle=orthogonalEdgeStyle;rounded=0;orthogonalLoop=1;jettySize=auto;html=1;exitX=1;exitY=0.5;exitDx=0;exitDy=0;entryX=0;entryY=0.5;entryDx=0;entryDy=0;strokeColor=#A8201A;fontColor=#143642;labelBackgroundColor=#DAD2D8;" edge="1" parent="1" source="RZ0JnvWCtyyWG6B7Fr3B-20">
          <mxGeometry relative="1" as="geometry">
            <mxPoint x="660" y="120" as="targetPoint" />
            <Array as="points">
              <mxPoint x="470" y="130" />
              <mxPoint x="660" y="130" />
            </Array>
          </mxGeometry>
        </mxCell>
        <mxCell id="RZ0JnvWCtyyWG6B7Fr3B-20" value="has a" style="rhombus;whiteSpace=wrap;html=1;fillColor=#FAE5C7;strokeColor=#0F8B8D;fontColor=#143642;" vertex="1" parent="1">
          <mxGeometry x="390" y="130" width="80" height="80" as="geometry" />
        </mxCell>
        <mxCell id="RZ0JnvWCtyyWG6B7Fr3B-27" style="edgeStyle=orthogonalEdgeStyle;rounded=0;orthogonalLoop=1;jettySize=auto;html=1;exitX=0.5;exitY=1;exitDx=0;exitDy=0;entryX=0.501;entryY=-0.189;entryDx=0;entryDy=0;entryPerimeter=0;strokeColor=#A8201A;fontColor=#143642;labelBackgroundColor=#DAD2D8;" edge="1" parent="1" source="RZ0JnvWCtyyWG6B7Fr3B-25" target="RZ0JnvWCtyyWG6B7Fr3B-11">
          <mxGeometry relative="1" as="geometry" />
        </mxCell>
        <mxCell id="RZ0JnvWCtyyWG6B7Fr3B-25" value="&lt;u&gt;شماره طبقه&lt;/u&gt;" style="ellipse;whiteSpace=wrap;html=1;fillColor=#FAE5C7;strokeColor=#0F8B8D;fontColor=#143642;" vertex="1" parent="1">
          <mxGeometry x="690" y="-20" width="120" height="80" as="geometry" />
        </mxCell>
        <mxCell id="RZ0JnvWCtyyWG6B7Fr3B-30" value="" style="rhombus;whiteSpace=wrap;html=1;fillColor=none;strokeColor=#0F8B8D;fontColor=#143642;" vertex="1" parent="1">
          <mxGeometry x="400" y="140" width="60" height="60" as="geometry" />
        </mxCell>
        <mxCell id="RZ0JnvWCtyyWG6B7Fr3B-33" style="edgeStyle=orthogonalEdgeStyle;rounded=0;orthogonalLoop=1;jettySize=auto;html=1;exitX=0.5;exitY=0;exitDx=0;exitDy=0;entryX=0.5;entryY=1;entryDx=0;entryDy=0;strokeColor=#A8201A;fontColor=#143642;labelBackgroundColor=#DAD2D8;" edge="1" parent="1" source="RZ0JnvWCtyyWG6B7Fr3B-31" target="RZ0JnvWCtyyWG6B7Fr3B-30">
          <mxGeometry relative="1" as="geometry" />
        </mxCell>
        <mxCell id="RZ0JnvWCtyyWG6B7Fr3B-31" value="one to many" style="text;html=1;strokeColor=none;fillColor=none;align=center;verticalAlign=middle;whiteSpace=wrap;rounded=0;fontColor=#143642;" vertex="1" parent="1">
          <mxGeometry x="372.5" y="210" width="115" height="20" as="geometry" />
        </mxCell>
        <mxCell id="RZ0JnvWCtyyWG6B7Fr3B-39" value="" style="endArrow=classic;html=1;strokeColor=#A8201A;fontColor=#143642;labelBackgroundColor=#DAD2D8;" edge="1" parent="1" target="RZ0JnvWCtyyWG6B7Fr3B-20">
          <mxGeometry relative="1" as="geometry">
            <mxPoint x="250" y="150" as="sourcePoint" />
            <mxPoint x="390" y="300" as="targetPoint" />
          </mxGeometry>
        </mxCell>
        <mxCell id="RZ0JnvWCtyyWG6B7Fr3B-40" value="many" style="edgeLabel;resizable=0;html=1;align=center;verticalAlign=middle;fontColor=#143642;labelBackgroundColor=#DAD2D8;" connectable="0" vertex="1" parent="RZ0JnvWCtyyWG6B7Fr3B-39">
          <mxGeometry relative="1" as="geometry" />
        </mxCell>
        <mxCell id="RZ0JnvWCtyyWG6B7Fr3B-77" style="edgeStyle=orthogonalEdgeStyle;rounded=0;orthogonalLoop=1;jettySize=auto;html=1;exitX=0.5;exitY=1;exitDx=0;exitDy=0;strokeColor=#A8201A;fontColor=#143642;labelBackgroundColor=#DAD2D8;" edge="1" parent="1" source="RZ0JnvWCtyyWG6B7Fr3B-41" target="RZ0JnvWCtyyWG6B7Fr3B-76">
          <mxGeometry relative="1" as="geometry" />
        </mxCell>
        <mxCell id="RZ0JnvWCtyyWG6B7Fr3B-41" value="مالک" style="rounded=0;whiteSpace=wrap;html=1;fillColor=#FAE5C7;strokeColor=#0F8B8D;fontColor=#143642;" vertex="1" parent="1">
          <mxGeometry x="1110" y="210" width="120" height="60" as="geometry" />
        </mxCell>
        <mxCell id="RZ0JnvWCtyyWG6B7Fr3B-42" value="" style="endArrow=classic;html=1;exitX=1.24;exitY=0.498;exitDx=0;exitDy=0;exitPerimeter=0;strokeColor=#A8201A;fontColor=#143642;labelBackgroundColor=#DAD2D8;" edge="1" parent="1" source="RZ0JnvWCtyyWG6B7Fr3B-30">
          <mxGeometry relative="1" as="geometry">
            <mxPoint x="590" y="250" as="sourcePoint" />
            <mxPoint x="660" y="120" as="targetPoint" />
            <Array as="points">
              <mxPoint x="460" y="120" />
            </Array>
          </mxGeometry>
        </mxCell>
        <mxCell id="RZ0JnvWCtyyWG6B7Fr3B-43" value="one" style="edgeLabel;resizable=0;html=1;align=center;verticalAlign=middle;fontColor=#143642;labelBackgroundColor=#DAD2D8;" connectable="0" vertex="1" parent="RZ0JnvWCtyyWG6B7Fr3B-42">
          <mxGeometry relative="1" as="geometry" />
        </mxCell>
        <mxCell id="RZ0JnvWCtyyWG6B7Fr3B-44" value="&lt;div style=&quot;font-size: 15px&quot;&gt;&lt;font style=&quot;font-size: 15px&quot;&gt;&lt;span style=&quot;background-color: rgb(255 , 255 , 255) ; font-size: 15px&quot;&gt;&lt;font style=&quot;font-size: 15px&quot; color=&quot;#990000&quot;&gt;چون ابزاری نداشتم که زیر &lt;br style=&quot;font-size: 15px&quot;&gt;&lt;/font&gt;&lt;/span&gt;&lt;/font&gt;&lt;/div&gt;&lt;div style=&quot;font-size: 15px&quot;&gt;&lt;font style=&quot;font-size: 15px&quot;&gt;&lt;span style=&quot;background-color: rgb(255 , 255 , 255) ; font-size: 15px&quot;&gt;&lt;font style=&quot;font-size: 15px&quot; color=&quot;#990000&quot;&gt;partial key &lt;br style=&quot;font-size: 15px&quot;&gt;&lt;/font&gt;&lt;/span&gt;&lt;/font&gt;&lt;/div&gt;&lt;div style=&quot;font-size: 15px&quot;&gt;&lt;font style=&quot;font-size: 15px&quot;&gt;&lt;span style=&quot;background-color: rgb(255 , 255 , 255) ; font-size: 15px&quot;&gt;&lt;font style=&quot;font-size: 15px&quot; color=&quot;#990000&quot;&gt;خط چین بکشم خط کشیدم &lt;br style=&quot;font-size: 15px&quot;&gt;&lt;/font&gt;&lt;/span&gt;&lt;/font&gt;&lt;/div&gt;&lt;div style=&quot;font-size: 15px&quot;&gt;&lt;font style=&quot;font-size: 15px&quot;&gt;&lt;span style=&quot;background-color: rgb(255 , 255 , 255) ; font-size: 15px&quot;&gt;&lt;font style=&quot;font-size: 15px&quot; color=&quot;#990000&quot;&gt;شماره طبقه &lt;br style=&quot;font-size: 15px&quot;&gt;&lt;/font&gt;&lt;/span&gt;&lt;/font&gt;&lt;/div&gt;&lt;div style=&quot;font-size: 15px&quot;&gt;&lt;font style=&quot;font-size: 15px&quot;&gt;&lt;span style=&quot;background-color: rgb(255 , 255 , 255) ; font-size: 15px&quot;&gt;&lt;font style=&quot;font-size: 15px&quot; color=&quot;#990000&quot;&gt;partial&amp;nbsp; key &lt;br style=&quot;font-size: 15px&quot;&gt;&lt;/font&gt;&lt;/span&gt;&lt;/font&gt;&lt;/div&gt;&lt;div&gt;&lt;br&gt;&lt;/div&gt;&lt;div&gt;&lt;font color=&quot;#990000&quot;&gt;هست&lt;/font&gt;&lt;/div&gt;&lt;div&gt;&lt;br&gt;&lt;/div&gt;" style="text;html=1;strokeColor=none;fillColor=none;align=center;verticalAlign=middle;whiteSpace=wrap;rounded=0;fontColor=#143642;" vertex="1" parent="1">
          <mxGeometry x="580" y="-210" width="320" height="130" as="geometry" />
        </mxCell>
        <mxCell id="RZ0JnvWCtyyWG6B7Fr3B-47" style="edgeStyle=orthogonalEdgeStyle;rounded=0;orthogonalLoop=1;jettySize=auto;html=1;exitX=0.5;exitY=1;exitDx=0;exitDy=0;entryX=0.43;entryY=-0.002;entryDx=0;entryDy=0;entryPerimeter=0;strokeColor=#A8201A;fontColor=#143642;labelBackgroundColor=#DAD2D8;" edge="1" parent="1" source="RZ0JnvWCtyyWG6B7Fr3B-45" target="RZ0JnvWCtyyWG6B7Fr3B-13">
          <mxGeometry relative="1" as="geometry" />
        </mxCell>
        <mxCell id="RZ0JnvWCtyyWG6B7Fr3B-45" value="has a" style="rhombus;whiteSpace=wrap;html=1;fillColor=#FAE5C7;strokeColor=#0F8B8D;fontColor=#143642;" vertex="1" parent="1">
          <mxGeometry x="710" y="210" width="80" height="80" as="geometry" />
        </mxCell>
        <mxCell id="RZ0JnvWCtyyWG6B7Fr3B-49" style="edgeStyle=orthogonalEdgeStyle;rounded=0;orthogonalLoop=1;jettySize=auto;html=1;exitX=0;exitY=0.75;exitDx=0;exitDy=0;entryX=1;entryY=0.5;entryDx=0;entryDy=0;strokeColor=#A8201A;fontColor=#143642;labelBackgroundColor=#DAD2D8;" edge="1" parent="1" source="RZ0JnvWCtyyWG6B7Fr3B-48" target="RZ0JnvWCtyyWG6B7Fr3B-45">
          <mxGeometry relative="1" as="geometry" />
        </mxCell>
        <mxCell id="RZ0JnvWCtyyWG6B7Fr3B-48" value="one to many" style="text;html=1;strokeColor=none;fillColor=none;align=center;verticalAlign=middle;whiteSpace=wrap;rounded=0;fontColor=#143642;" vertex="1" parent="1">
          <mxGeometry x="790" y="240" width="40" height="20" as="geometry" />
        </mxCell>
        <mxCell id="RZ0JnvWCtyyWG6B7Fr3B-51" style="edgeStyle=orthogonalEdgeStyle;rounded=0;orthogonalLoop=1;jettySize=auto;html=1;exitX=0;exitY=0.25;exitDx=0;exitDy=0;strokeColor=#A8201A;fontColor=#143642;labelBackgroundColor=#DAD2D8;" edge="1" parent="1" source="RZ0JnvWCtyyWG6B7Fr3B-50">
          <mxGeometry relative="1" as="geometry">
            <mxPoint x="750" y="175.57142857142867" as="targetPoint" />
          </mxGeometry>
        </mxCell>
        <mxCell id="RZ0JnvWCtyyWG6B7Fr3B-50" value="many" style="text;html=1;strokeColor=none;fillColor=none;align=center;verticalAlign=middle;whiteSpace=wrap;rounded=0;fontColor=#143642;" vertex="1" parent="1">
          <mxGeometry x="750" y="170" width="40" height="20" as="geometry" />
        </mxCell>
        <mxCell id="RZ0JnvWCtyyWG6B7Fr3B-53" style="edgeStyle=orthogonalEdgeStyle;rounded=0;orthogonalLoop=1;jettySize=auto;html=1;exitX=0.25;exitY=1;exitDx=0;exitDy=0;strokeColor=#A8201A;fontColor=#143642;labelBackgroundColor=#DAD2D8;" edge="1" parent="1" source="RZ0JnvWCtyyWG6B7Fr3B-52">
          <mxGeometry relative="1" as="geometry">
            <mxPoint x="680" y="310" as="targetPoint" />
          </mxGeometry>
        </mxCell>
        <mxCell id="RZ0JnvWCtyyWG6B7Fr3B-52" value="one" style="text;html=1;strokeColor=none;fillColor=none;align=center;verticalAlign=middle;whiteSpace=wrap;rounded=0;fontColor=#143642;" vertex="1" parent="1">
          <mxGeometry x="650" y="290" width="40" height="20" as="geometry" />
        </mxCell>
        <mxCell id="RZ0JnvWCtyyWG6B7Fr3B-56" style="edgeStyle=orthogonalEdgeStyle;rounded=0;orthogonalLoop=1;jettySize=auto;html=1;exitX=0.5;exitY=1;exitDx=0;exitDy=0;entryX=0.5;entryY=0;entryDx=0;entryDy=0;strokeColor=#A8201A;fontColor=#143642;labelBackgroundColor=#DAD2D8;" edge="1" parent="1" source="RZ0JnvWCtyyWG6B7Fr3B-55" target="RZ0JnvWCtyyWG6B7Fr3B-1">
          <mxGeometry relative="1" as="geometry" />
        </mxCell>
        <mxCell id="RZ0JnvWCtyyWG6B7Fr3B-55" value="تعداد اسانسور" style="ellipse;whiteSpace=wrap;html=1;fillColor=#FAE5C7;strokeColor=#0F8B8D;fontColor=#143642;" vertex="1" parent="1">
          <mxGeometry x="-140" width="120" height="80" as="geometry" />
        </mxCell>
        <mxCell id="RZ0JnvWCtyyWG6B7Fr3B-60" style="edgeStyle=orthogonalEdgeStyle;rounded=0;orthogonalLoop=1;jettySize=auto;html=1;exitX=0;exitY=0.5;exitDx=0;exitDy=0;entryX=0.5;entryY=0;entryDx=0;entryDy=0;strokeColor=#A8201A;fontColor=#143642;labelBackgroundColor=#DAD2D8;" edge="1" parent="1" source="RZ0JnvWCtyyWG6B7Fr3B-57" target="RZ0JnvWCtyyWG6B7Fr3B-41">
          <mxGeometry relative="1" as="geometry" />
        </mxCell>
        <mxCell id="RZ0JnvWCtyyWG6B7Fr3B-57" value="نام" style="ellipse;whiteSpace=wrap;html=1;fillColor=#FAE5C7;strokeColor=#0F8B8D;fontColor=#143642;" vertex="1" parent="1">
          <mxGeometry x="1250" y="110" width="120" height="80" as="geometry" />
        </mxCell>
        <mxCell id="RZ0JnvWCtyyWG6B7Fr3B-63" style="edgeStyle=orthogonalEdgeStyle;rounded=0;orthogonalLoop=1;jettySize=auto;html=1;exitX=0.5;exitY=1;exitDx=0;exitDy=0;strokeColor=#A8201A;fontColor=#143642;labelBackgroundColor=#DAD2D8;" edge="1" parent="1" source="RZ0JnvWCtyyWG6B7Fr3B-58">
          <mxGeometry relative="1" as="geometry">
            <mxPoint x="1170.1428571428573" y="210" as="targetPoint" />
          </mxGeometry>
        </mxCell>
        <mxCell id="RZ0JnvWCtyyWG6B7Fr3B-58" value="تعداد دنگ" style="ellipse;whiteSpace=wrap;html=1;fillColor=#FAE5C7;strokeColor=#0F8B8D;fontColor=#143642;" vertex="1" parent="1">
          <mxGeometry x="1110" y="40" width="120" height="80" as="geometry" />
        </mxCell>
        <mxCell id="RZ0JnvWCtyyWG6B7Fr3B-61" style="edgeStyle=orthogonalEdgeStyle;rounded=0;orthogonalLoop=1;jettySize=auto;html=1;exitX=0;exitY=0;exitDx=0;exitDy=0;entryX=0.5;entryY=0;entryDx=0;entryDy=0;strokeColor=#A8201A;fontColor=#143642;labelBackgroundColor=#DAD2D8;" edge="1" parent="1" source="RZ0JnvWCtyyWG6B7Fr3B-59" target="RZ0JnvWCtyyWG6B7Fr3B-41">
          <mxGeometry relative="1" as="geometry" />
        </mxCell>
        <mxCell id="RZ0JnvWCtyyWG6B7Fr3B-59" value="&lt;u&gt;شماره ملی&lt;/u&gt;" style="ellipse;whiteSpace=wrap;html=1;fillColor=#FAE5C7;strokeColor=#0F8B8D;fontColor=#143642;" vertex="1" parent="1">
          <mxGeometry x="1270" y="240" width="120" height="80" as="geometry" />
        </mxCell>
        <mxCell id="RZ0JnvWCtyyWG6B7Fr3B-65" style="edgeStyle=orthogonalEdgeStyle;rounded=0;orthogonalLoop=1;jettySize=auto;html=1;exitX=0.5;exitY=1;exitDx=0;exitDy=0;entryX=0.5;entryY=0;entryDx=0;entryDy=0;strokeColor=#A8201A;fontColor=#143642;labelBackgroundColor=#DAD2D8;" edge="1" parent="1" source="RZ0JnvWCtyyWG6B7Fr3B-64" target="RZ0JnvWCtyyWG6B7Fr3B-41">
          <mxGeometry relative="1" as="geometry" />
        </mxCell>
        <mxCell id="RZ0JnvWCtyyWG6B7Fr3B-64" value="تاریخ خرید" style="ellipse;whiteSpace=wrap;html=1;fillColor=#FAE5C7;strokeColor=#0F8B8D;fontColor=#143642;" vertex="1" parent="1">
          <mxGeometry x="980" y="40" width="120" height="80" as="geometry" />
        </mxCell>
        <mxCell id="RZ0JnvWCtyyWG6B7Fr3B-68" style="edgeStyle=orthogonalEdgeStyle;rounded=0;orthogonalLoop=1;jettySize=auto;html=1;exitX=0;exitY=0.5;exitDx=0;exitDy=0;entryX=1;entryY=0.5;entryDx=0;entryDy=0;strokeColor=#A8201A;fontColor=#143642;labelBackgroundColor=#DAD2D8;" edge="1" parent="1" source="RZ0JnvWCtyyWG6B7Fr3B-66" target="RZ0JnvWCtyyWG6B7Fr3B-10">
          <mxGeometry relative="1" as="geometry" />
        </mxCell>
        <mxCell id="RZ0JnvWCtyyWG6B7Fr3B-69" style="edgeStyle=orthogonalEdgeStyle;rounded=0;orthogonalLoop=1;jettySize=auto;html=1;exitX=1;exitY=0.5;exitDx=0;exitDy=0;entryX=0;entryY=0.5;entryDx=0;entryDy=0;strokeColor=#A8201A;fontColor=#143642;labelBackgroundColor=#DAD2D8;" edge="1" parent="1" source="RZ0JnvWCtyyWG6B7Fr3B-66" target="RZ0JnvWCtyyWG6B7Fr3B-41">
          <mxGeometry relative="1" as="geometry" />
        </mxCell>
        <mxCell id="RZ0JnvWCtyyWG6B7Fr3B-66" value="has to" style="rhombus;whiteSpace=wrap;html=1;fillColor=#FAE5C7;strokeColor=#0F8B8D;fontColor=#143642;" vertex="1" parent="1">
          <mxGeometry x="920" y="160" width="80" height="80" as="geometry" />
        </mxCell>
        <mxCell id="RZ0JnvWCtyyWG6B7Fr3B-72" style="edgeStyle=orthogonalEdgeStyle;rounded=0;orthogonalLoop=1;jettySize=auto;html=1;exitX=0.5;exitY=0;exitDx=0;exitDy=0;entryX=0.5;entryY=1;entryDx=0;entryDy=0;strokeColor=#A8201A;fontColor=#143642;labelBackgroundColor=#DAD2D8;" edge="1" parent="1" source="RZ0JnvWCtyyWG6B7Fr3B-70" target="RZ0JnvWCtyyWG6B7Fr3B-66">
          <mxGeometry relative="1" as="geometry" />
        </mxCell>
        <mxCell id="RZ0JnvWCtyyWG6B7Fr3B-70" value="many to many" style="text;html=1;strokeColor=none;fillColor=none;align=center;verticalAlign=middle;whiteSpace=wrap;rounded=0;fontColor=#143642;" vertex="1" parent="1">
          <mxGeometry x="940" y="250" width="40" height="20" as="geometry" />
        </mxCell>
        <mxCell id="RZ0JnvWCtyyWG6B7Fr3B-75" style="edgeStyle=orthogonalEdgeStyle;rounded=0;orthogonalLoop=1;jettySize=auto;html=1;exitX=0.5;exitY=1;exitDx=0;exitDy=0;entryX=0.444;entryY=-0.189;entryDx=0;entryDy=0;entryPerimeter=0;strokeColor=#A8201A;fontColor=#143642;labelBackgroundColor=#DAD2D8;" edge="1" parent="1" source="RZ0JnvWCtyyWG6B7Fr3B-74" target="RZ0JnvWCtyyWG6B7Fr3B-11">
          <mxGeometry relative="1" as="geometry" />
        </mxCell>
        <mxCell id="RZ0JnvWCtyyWG6B7Fr3B-74" value="متراژ" style="ellipse;whiteSpace=wrap;html=1;fillColor=#FAE5C7;strokeColor=#0F8B8D;fontColor=#143642;" vertex="1" parent="1">
          <mxGeometry x="840" y="-30" width="120" height="80" as="geometry" />
        </mxCell>
        <mxCell id="RZ0JnvWCtyyWG6B7Fr3B-76" value="نام خانوادگی" style="ellipse;whiteSpace=wrap;html=1;fillColor=#FAE5C7;strokeColor=#0F8B8D;fontColor=#143642;" vertex="1" parent="1">
          <mxGeometry x="1120" y="360" width="120" height="80" as="geometry" />
        </mxCell>
        <mxCell id="RZ0JnvWCtyyWG6B7Fr3B-79" value="" style="endArrow=none;html=1;strokeColor=#A8201A;fillColor=#FAE5C7;fontColor=#143642;exitX=1;exitY=0.5;exitDx=0;exitDy=0;" edge="1" parent="1" source="RZ0JnvWCtyyWG6B7Fr3B-11">
          <mxGeometry width="50" height="50" relative="1" as="geometry">
            <mxPoint x="1030" y="220" as="sourcePoint" />
            <mxPoint x="930" y="200" as="targetPoint" />
            <Array as="points">
              <mxPoint x="830" y="130" />
              <mxPoint x="850" y="212" />
            </Array>
          </mxGeometry>
        </mxCell>
      </root>
    </mxGraphModel>
  </diagram>
</mxfile>
